# xmcd
#
# Track frame offsets: 
#        150
#        10647
#        31059
#        52021
#        68302
#        86123
#        102265
#        118031
#        132524
#        149970
#        168904
#
# Disc length: 2505 seconds
#
# Revision: 0
# Processed by: cddbd v1.5.2PL0 Copyright (c) Steve Scherf et al.
# Submitted via: ExactAudioCopy v1.0b1
#
DISCID=9309c70b
DTITLE=Vienio - Profil pokoleń
DYEAR=2013
DGENRE=Hip-Hop
TTITLE0=Intro- Profil pokoleń
TTITLE1=Cząstka mnie feat Jarex
TTITLE2=Diabły 2013 Kodym, 
TTITLE3=Elektroniczna cywilizacja 2013 Kapitan Nemo
TTITLE4=Rodzi się frustracja Maleo
TTITLE5=Moja krew 2013
TTITLE6=Złota polska młodzież 2013 Robert
TTITLE7=Strzeż się tych miejsc 2013 Lech Janerka
TTITLE8=Nie gniewaj się na mnie Polsko Sztywny Pal Azji
TTITLE9=To co czujesz to co wiesz Tomek Lipiński Mioush
TTITLE10=Wolnym być Jamal
EXTD=
EXTT0=
EXTT1=
EXTT2=
EXTT3=
EXTT4=
EXTT5=
EXTT6=
EXTT7=
EXTT8=
EXTT9=
EXTT10=
PLAYORDER=
